# xmcd
#
# Track frame offsets: 
#        150
#        10260
#        27215
#        41022
#        55342
#        66847
#        84737
#        101305
#        116512
#        137135
#        153590
#        169562
#        188102
#        197890
#        210115
#        226987
#        243052
#        255942
#        267925
#
# Disc length: 3734 seconds
#
# Revision: 1
# Processed by: cddbd v1.5.2PL0 Copyright (c) Steve Scherf et al.
# Submitted via: ExactAudioCopy v1.0b4
#
DISCID=f30e9413
DTITLE=Various Artist - Spread the Jam 16 - Disc 3 - Country
DYEAR=1900
DGENRE=Country
TTITLE0=Clay Walker - If I Could Make A Living
TTITLE1=Tracy Lawrence - Hillbilly With A Heartache
TTITLE2=Lisa Brokop - Give Me A Ring Some Time
TTITLE3=Shenandoah - Heaven Bound (I'm Ready)
TTITLE4=Lyle Lovett - Penguins
TTITLE5=Willie Nelson - Nightlife
TTITLE6=George Jones and Alan Jackson - A Good Year For The Roses
TTITLE7=Clay Walker - Heartache Highway
TTITLE8=Mary Chapin Carpenter - Stones In The Road
TTITLE9=Tracy Lawrence - I See It Now
TTITLE10=Willie Nelson - Crazy
TTITLE11=Shenandoah - Somewhere In The Vicinity Of The Heart
TTITLE12=George Strait - The Big One
TTITLE13=Lyle Lovett - Skinny Legs
TTITLE14=Mary Chapin Carpenter - Shut Up And Kiss Me
TTITLE15=Lisa Brokop - Take That
TTITLE16=George Jones and Alan Jackson - One Woman Man
TTITLE17=George Strait - What I'm Waiting For
TTITLE18=Jeff Foxworthy - You Might Be A Redneck If
EXTD=
EXTT0=
EXTT1=
EXTT2=
EXTT3=
EXTT4=
EXTT5=
EXTT6=
EXTT7=
EXTT8=
EXTT9=
EXTT10=
EXTT11=
EXTT12=
EXTT13=
EXTT14=
EXTT15=
EXTT16=
EXTT17=
EXTT18=
PLAYORDER=
